<?xml version="1.0" standalone="no"?>
<!DOCTYPE svg PUBLIC "-//W3C//DTD SVG 1.1//EN" "http://www.w3.org/Graphics/SVG/1.1/DTD/svg11.dtd" >
<svg xmlns="http://www.w3.org/2000/svg" xmlns:xlink="http://www.w3.org/1999/xlink" version="1.1">
<metadata></metadata>
<defs>
<font id="kissita_demoregular" horiz-adv-x="493" >
<font-face units-per-em="2048" ascent="1638" descent="-410" />
<missing-glyph horiz-adv-x="409" />
<glyph horiz-adv-x="0" />
<glyph horiz-adv-x="682" />
<glyph horiz-adv-x="0" />
<glyph horiz-adv-x="0" />
<glyph unicode="&#xd;" horiz-adv-x="409" />
<glyph unicode=" "  horiz-adv-x="409" />
<glyph unicode="&#x09;" horiz-adv-x="409" />
<glyph unicode="&#xa0;" horiz-adv-x="409" />
<glyph unicode="A" horiz-adv-x="1200" d="M-29 102q3 77 51.5 166t131.5 152q63 46 135 68q66 20 125 19h11q64 -2 136 -9q118 164 215 313q8 140 51.5 284.5t124.5 202.5q29 25 57 18.5t25 -50.5q-7 -108 -151 -342q-12 -122 -12 -245q0 -101 8 -202q55 13 98 47q7 6 13.5 2.5t7.5 -11t-5 -13.5q-49 -38 -112 -53 q12 -128 41 -242q7 -25 14.5 -48t22 -53t31 -49.5t40.5 -30t51 -3.5q9 3 14.5 -3t3 -14t-11.5 -10q-29 -10 -55 -10q-16 0 -32 4q-40 10 -68.5 30.5t-51.5 57t-37.5 72.5t-25.5 79q-23 100 -33 211q-32 1 -65.5 5t-81 12t-64.5 10l-110 -154q-226 -307 -367 -338 q-18 -5 -34 -5q-38 0 -61 28q-30 36 -30 96v8zM0 102v-9q0 -47 20 -73q16 -21 47 -21q12 0 25 3q130 32 346 328q70 94 103 141q-65 6 -125 7h-5q-57 0 -119 -18q-66 -20 -122 -61q-79 -58 -123.5 -141.5t-46.5 -155.5zM592 492q16 -2 58 -8.5t73 -10t59 -4.5q-9 106 -9 224 q0 32 1 65q-37 -56 -104 -153t-78 -113zM891 989q108 186 115 268q3 23 -1.5 28.5t-12 -1.5t-17.5 -22q-59 -86 -84 -273z" />
<glyph unicode="B" horiz-adv-x="1179" d="M43 25q20 71 74.5 256t81.5 283.5t60.5 250.5t49.5 281q9 25 9 62q0 34 -8 80q-10 62 -43 62q-18 0 -44 -18q-50 -38 -94 -121q-26 -53 -37 -107q-6 -27 -6 -54.5t6 -55.5q11 -56 49 -92q7 -7 4.5 -15t-10 -10t-14.5 4q-43 43 -56 104q-7 32 -7 64q0 29 6 57 q12 60 40 118q45 89 103 131q39 28 75 28q14 0 28 -4q49 -15 73 -76q27 -68 27 -169q0 -147 -56 -365q70 196 144 328q106 193 221 233q35 12 69 12q13 0 25 -2q45 -6 76.5 -36t43.5 -83q5 -22 5 -48q0 -37 -10 -81q-20 -87 -88 -175t-170 -142q89 -5 158 -38t109 -85 q39 -52 59 -116q16 -54 17 -109q0 -11 -1 -23q-4 -68 -30 -135t-69.5 -122t-110 -95t-145.5 -53q-33 -6 -65 -6q-70 0 -134 28q-92 40 -132 138q-21 48 -21 100q0 49 19 100q3 8 10.5 9.5t13 -4t2.5 -13.5q-17 -46 -17 -89q0 -48 21 -93q35 -76 104 -110q55 -27 115 -27 q16 0 33 2q139 16 227 147q79 116 79 257q0 153 -90 235q-72 65 -185 65q-45 0 -96 -10q-12 -2 -19 3.5t-3.5 14t18.5 13.5q142 50 229 186q42 64 66 150q13 47 13 86q0 33 -9 61q-13 42 -46 54q-15 5 -30 5q-19 0 -37 -8q-42 -15 -81 -53t-61 -71.5t-51 -84.5 q-52 -93 -111.5 -237.5t-92 -236.5t-84.5 -245q-2 -7 -42 -127t-61 -174q-11 -34 -50 -35q-35 -2 -45 22q-5 11 -1 24z" />
<glyph unicode="C" horiz-adv-x="1048" d="M-4 402q-2 23 -2 44q0 47 8 89q20 155 94 307t186 265.5t236 152.5q70 24 138 28q11 1 22 0q58 0 116 -20q70 -24 109 -84q40 -53 39 -139v-10q-2 -93 -55 -201q-5 -7 -12.5 -7.5t-12.5 6.5t0 15q54 110 54 196q0 69 -35 123q-35 53 -95 74q-45 16 -90 16q-14 0 -30 -2 q-60 -7 -117 -34q-80 -39 -154.5 -122t-127.5 -185.5t-90 -220.5t-43 -228q-1 -26 -1 -52q0 -81 14 -155q20 -83 66 -135.5t106 -69.5q42 -12 86 -12q21 1 41 3q66 8 132 38q229 107 471 422q6 7 14 5t11 -8.5t-1 -13.5q-225 -289 -434 -407q-129 -72 -249 -83 q-19 -2 -38 -2q-97 0 -178 48q-59 37 -99.5 96.5t-56.5 125t-22 137.5z" />
<glyph unicode="D" horiz-adv-x="1243" d="M43 25q24 86 99 326t118.5 412t63.5 333q9 25 9 62q1 34 -7 80q-10 62 -44 62q-18 0 -44 -18q-52 -39 -95 -121q-27 -53 -37 -107q-5 -26 -5 -53q0 -29 6 -57q11 -56 49 -92q10 -10 0 -21t-21 0q-43 43 -56 105q-7 32 -7 63q0 29 6 57q12 59 41 118q46 90 102 131 q39 28 75 28q14 0 28 -4q48 -15 73 -76q26 -63 26 -155q0 -131 -52 -320q92 266 204 400q57 68 117 102q57 32 109 32h6q54 -2 103 -29t86 -76.5t59 -114.5q42 -121 43 -273q0 -53 -6 -109q-20 -218 -109 -403q-70 -143 -178.5 -239.5t-241.5 -102.5h-13q-70 1 -128 29 q-64 32 -98 100q-26 51 -26 110q0 57 24 122q3 8 10.5 9t13 -4.5t2.5 -13.5q-22 -62 -21.5 -114.5t21.5 -96.5q31 -64 96 -89q42 -16 84 -16q24 0 48 5q66 14 114 57q65 59 119 152t87 197q32 104 54 218q21 112 22 212q0 103 -14 194q-24 134 -84 194q-40 40 -89 39 q-24 1 -51 -9q-81 -30 -163 -146q-79 -111 -159.5 -313t-153.5 -433.5t-82 -254.5q-22 -61 -33 -86q-17 -43 -58 -44q-32 -1 -41 21q-4 10 -1 21z" />
<glyph unicode="E" horiz-adv-x="905" d="M-35 296q-1 16 -1 32q0 66 20 132q26 80 74.5 149.5t130 115.5t180.5 53q-63 48 -99 108q-36 59 -42 118q-1 16 -2 31q0 43 11 84q15 56 53 101t91 72q53 28 118 34q17 1 34 1q46 0 90 -11q59 -15 106 -55.5t62 -99.5q7 -26 6 -55q0 -49 -19 -102q-6 -13 -19.5 -8.5 t-8.5 18.5q19 45 19 88q0 35 -13 69q-34 85 -119 107q-31 8 -61 8q-54 0 -106 -24q-82 -38 -118 -113q-22 -47 -26 -99q-1 -14 -2 -27q0 -39 10 -78q13 -52 52.5 -99.5t100.5 -79.5q15 -8 13 -18.5t-19 -10.5q-78 0 -146 -27t-115.5 -71t-82 -101.5t-50.5 -119.5 q-16 -60 -15 -119q0 -64 18 -117q55 -161 223 -161q17 0 35 2q53 5 103 22.5t91 41.5t82 59.5t72.5 70t65.5 80t59.5 82.5t56.5 84q18 27 27 41q5 7 13.5 5t12 -8.5t-0.5 -13.5q-125 -186 -181 -254q-153 -186 -321 -235q-37 -11 -74 -16q-29 -4 -56 -4q-79 0 -148 30 q-93 40 -144 139q-35 67 -41 149z" />
<glyph unicode="F" horiz-adv-x="892" d="M22 110q4 62 18 117t36 107q58 132 152 227t212 121q101 377 191 510q-110 18 -197 18q-231 0 -297 -129q-5 -7 -12 -7t-12.5 6.5t-1.5 13.5q23 42 59 72t81 44t87 22q35 6 77 6h17q54 -2 86 -4t78 -8t55 -7q100 126 248 141q19 2 36 1q83 0 132 -39q31 -24 31 -50 q0 -12 -7 -25q-22 -41 -108 -59q-55 -11 -129 -11q-58 0 -127 7q-17 -27 -33.5 -63.5t-28 -68t-27 -85t-23.5 -83t-25.5 -97t-24.5 -93.5h65t81 4q13 69 26 95q18 34 38 34q8 0 15 -5q25 -16 25 -58q-1 -57 -54 -81l-26 -9q-15 -69 -47 -99q-10 -9 -19.5 2.5t-0.5 20.5 q27 24 37 70q-22 -2 -55 -2h-17q-15 0 -28 1q-26 0 -46 -1q-2 -9 -16 -61.5t-19 -71.5t-19.5 -72t-23 -78.5t-24.5 -74.5t-28.5 -77.5t-30 -69.5t-34 -68t-36.5 -55.5t-41 -49.5q-31 -31 -67 -51q-38 -20 -74 -25q-7 -1 -13 -1q-29 -1 -54 17q-31 22 -46 70q-12 38 -12 85 q0 13 1 27zM49 111q-1 -12 0 -23q0 -46 12 -84q14 -48 45 -60q8 -3 17 -3q24 0 53 26q20 20 42 56.5t39.5 74t38 95t34 97.5t32.5 105.5t27.5 95.5t24.5 90.5t18 69.5q-107 -28 -191 -116t-139 -211q-21 -48 -35 -100.5t-18 -112.5zM741 705q40 15 46 57q4 28 -8 31 q-8 2 -17 -15q-15 -36 -21 -73zM745 1210q54 -4 100 -5q76 0 132 12q88 18 88 55q0 27 -45 46q-32 13 -67 13q-14 0 -29 -2q-106 -19 -179 -119z" />
<glyph unicode="G" horiz-adv-x="1161" d="M-16 385q13 179 95 378t216 345q102 110 235 170q98 43 195 43q36 0 72 -6q129 -20 186 -129q32 -62 32 -137q0 -96 -54 -213q-6 -13 -19 -7.5t-8 19.5q52 111 52 202q0 66 -28 121q-37 72 -109 99q-47 18 -97 18q-25 0 -51 -5q-76 -14 -142 -58q-204 -137 -358 -527 q-73 -184 -82 -367q-1 -22 -1 -43q0 -159 69 -198q20 -11 44 -11q99 0 273 179q107 110 252 307q12 16 26.5 24.5t27.5 9.5t24.5 -2.5t18 -11.5t5.5 -18q-9 -144 -70 -385q92 58 173.5 127.5t199.5 194.5q6 6 14 3.5t11 -9t-2 -13.5q-126 -135 -213 -207t-193 -137 q-26 -99 -65 -196.5t-104.5 -197.5t-137.5 -140q-36 -21 -73 -25q-8 -1 -16 -1q-26 0 -46 10q-27 13 -40 43q-6 15 -6 35t7 44q23 85 112.5 188t252.5 203q38 125 83 398q-123 -164 -221 -264q-31 -31 -43 -43.5t-48 -45t-58.5 -47.5t-60 -36t-66.5 -27q-23 -5 -49 -5 q-9 0 -18 1q-37 2 -70 18q-53 26 -84.5 87t-39.5 122q-5 38 -5 75q0 24 2 48zM326 -293q-5 -22 -5 -39q0 -28 13 -42q10 -10 25 -10q20 0 51 19q58 39 121 145t118 281q-145 -92 -224 -185.5t-99 -168.5z" />
<glyph unicode="H" horiz-adv-x="1224" d="M27 -35q-6 14 -6 36q0 26 8 62q22 91 87.5 203.5t168.5 208.5q106 320 147 639q7 25 7 56q-1 25 -5 53q-6 37 -26 37q-15 0 -37 -19q-47 -41 -77 -106q-29 -64 -28 -134q0 -73 39 -120q6 -7 2.5 -14.5t-11 -9t-13.5 4.5q-47 55 -47 139q0 77 32 147q34 72 84 116 q26 22 54 30.5t55.5 -3t42.5 -46.5q21 -50 20 -135q0 -184 -96 -530q68 38 205.5 81.5t169.5 55.5q130 455 268 563q27 20 53 26.5t46 -8t24 -51.5q1 -13 1 -27q-1 -77 -39 -172q-46 -112 -107 -186q-63 -73 -125 -114q-117 -400 -117 -613q0 -17 0.5 -28t2 -26t6 -23 t11 -14t17.5 -5t26 10q106 61 355 455q8 11 19.5 3t4.5 -20q-32 -51 -48 -75t-56 -85t-69 -99t-66.5 -85.5t-71 -79t-61.5 -47.5q-31 -15 -56 -15q-15 0 -29 6q-34 15 -53 61q-25 61 -25 157q0 171 79 457q-42 -16 -121 -39.5t-142 -47t-114 -54.5q-17 -54 -37 -112 t-54 -139.5t-68 -147.5t-77 -121t-82 -74q-19 -8 -34 -8q-26 0 -37 26zM57 55q-7 -34 -7 -52q0 -19 8 -20q1 0 3 1q8 4 19 16q75 93 186 416q-85 -89 -138.5 -186.5t-70.5 -174.5zM936 793q56 43 96 96q55 73 99 177q37 88 37 155q0 12 -1 24q-5 50 -37 10 q-67 -76 -194 -462z" />
<glyph unicode="I" horiz-adv-x="802" d="M-20 154q0 14 14 12.5t14 -16.5q-2 -15 -2 -28q0 -68 46 -113q39 -38 96 -38q22 0 47 6q39 9 75.5 40t65 77.5t53 96.5t45 110t34 104.5t26.5 91.5q5 20 8 29q100 347 121 574q3 43 3 77q0 127 -46 127q-4 0 -9 -1q-17 -4 -36 -19q-65 -52 -101 -137q-31 -73 -32 -143 q0 -12 1 -23q6 -78 58 -127q6 -7 2.5 -14.5t-10.5 -9.5t-13 4q-58 53 -65 145q-1 12 -1 23q0 80 36 162q41 94 106 143q41 30 80 30q14 1 27 -3q51 -14 73 -77q22 -59 23 -160v-12q0 -96 -15 -206q-16 -117 -50 -247t-79 -247t-105.5 -218t-125.5 -159q-67 -59 -149 -69 q-15 -2 -29 -2q-65 0 -117 38q-71 54 -71 150q0 14 2 29z" />
<glyph unicode="J" horiz-adv-x="899" d="M-30 -348q-11 27 -11 61q0 38 14 86q16 52 48.5 105.5t85 110t132.5 111.5t179 99q23 83 61.5 248t67 283.5t79.5 256.5t109 224q-230 39 -325 39q-258 0 -258 -180q0 -15 -14.5 -15t-14.5 15q0 209 287 209q33 0 66.5 -2t74 -7.5t64.5 -9t73.5 -11.5t65.5 -11 q55 68 139 90q29 8 61 8q1 1 3 1q30 0 63 -11t51 -35q13 -19 13 -36q0 -23 -25 -42q-34 -27 -118 -27q-53 0 -126 11q-51 -81 -97.5 -250t-92 -392.5t-64.5 -295.5q141 53 207.5 94.5t130.5 124.5q9 12 20 3t3 -20q-69 -92 -141 -134t-230 -101q-69 -245 -154 -389 q-26 -44 -62 -88.5t-81 -88t-98 -69.5q-48 -23 -91 -23h-10q-61 3 -85 58zM-2 -337q15 -37 54 -37q7 0 14 1q49 7 104 64q130 137 238 499q-177 -85 -278 -191t-130 -208q-11 -45 -11 -78q0 -30 9 -50zM834 1249q64 -9 110 -9q70 0 98 22q21 18 5 38t-46.5 27t-54.5 0 q-61 -13 -112 -78z" />
<glyph unicode="K" horiz-adv-x="1054" d="M-37 -8q-3 17 -3 35q0 53 23 116q30 84 76 156q106 165 299 301q97 357 118 507q9 60 9 100q0 38 -8 57q-11 32 -45 10q-39 -25 -76 -100q-26 -54 -38 -110q-6 -30 -6 -61q0 -29 6 -57q10 -60 49 -102q7 -7 3.5 -14.5t-11 -9.5t-13.5 3q-44 47 -56 115q-6 34 -6 67 q0 31 6 61q12 61 40 120q39 80 86 112q27 19 51 19q29 0 53 -27q36 -40 46 -120q4 -31 4 -65q0 -51 -10 -111q-14 -98 -28.5 -165.5t-33.5 -138.5q197 126 334.5 251t220.5 284q6 8 13 8t12 -6.5t1 -14.5q-51 -93 -117.5 -175t-149 -152.5t-154 -122t-171.5 -115.5 q25 -21 41.5 -52t26 -78.5t14 -80t9.5 -98t8 -90.5q9 -104 19.5 -163t31.5 -85q13 -17 32 -16q25 0 60 30q35 29 73.5 76t63.5 81.5t67.5 109.5t53 94.5t53.5 100.5q10 19 15 28q4 8 12 8t12.5 -6t-0.5 -14q-112 -218 -167 -305q-86 -134 -164 -195q-36 -26 -72 -38 q-19 -6 -37 -6q-17 0 -37 5q-38 11 -65 51q-35 51 -41 141q-3 37 -2 71q0 51 6 99q7 56 6 113q0 24 -1 47q-4 80 -34 115q-24 -90 -52.5 -174.5t-72 -184.5t-100.5 -177.5t-119 -112.5q-37 -20 -70.5 -24.5t-60 14t-33.5 61.5zM-8 -2q6 -46 34 -50q3 0 5 -1q25 0 55 30 q136 125 262 580q-169 -126 -264 -272q-42 -67 -71 -147q-23 -62 -23 -113q0 -14 2 -27z" />
<glyph unicode="L" horiz-adv-x="790" d="M-27 -20q30 74 136 74q34 0 75 -7q109 218 209 600q-127 -58 -301 -82q-9 -1 -13 6t-2 14.5t11 8.5q180 23 315 88q20 76 31.5 119.5t42 138t56.5 153.5t65 118.5t78 82.5q30 18 51 18q42 0 51 -71q3 -26 4 -53q0 -114 -61 -234q-74 -148 -189 -231q-46 -190 -118 -374.5 t-160 -317.5q32 -10 94 -32t99 -33.5t93 -26.5q54 -15 94 -16q7 0 14 -1q34 0 72 5q46 5 84 26.5t70 58.5q6 7 14 5.5t11.5 -8t-0.5 -13.5q-38 -52 -79.5 -84.5t-80.5 -46t-83 -13.5q-2 0 -5 -1q-43 -1 -79 9q-38 10 -85 28t-84.5 36t-86.5 39.5t-85 34.5 q-91 -126 -179 -129h-5q-51 0 -73 40q-9 17 -9 36q0 17 8 35zM0 -31q-5 -13 -5 -25q0 -21 16 -36q14 -13 31 -13q21 0 47 19q42 30 81 102q-34 7 -64 8.5t-62 -11.5t-44 -44zM543 768q99 90 160 220q50 106 50 204q0 23 -3 45q-5 44 -20 44q-8 0 -19 -13q-62 -71 -163 -478 q-1 -5 -1.5 -8t-1.5 -7t-2 -7z" />
<glyph unicode="M" horiz-adv-x="1482" d="M45 -4q-4 11 0 24q19 62 79 253.5t89 290t65 253t52 279.5q9 25 9 64q0 34 -7 78q-10 62 -44 62q-19 0 -44 -18q-52 -39 -92 -121q-26 -53 -38 -107q-6 -28 -7 -56q0 -28 6 -54q11 -56 49 -92q10 -10 0 -21t-21 0q-43 43 -55 105q-6 31 -7 61q0 29 6 59q12 58 40 118 q46 90 102 131q40 28 77 28q14 0 27 -4q48 -15 72 -76q21 -55 22 -143v-23q1 -74 -5 -131q-6 -66 -35.5 -192.5t-40 -164.5t-46.5 -163l-3 -12t-3 -10t-3 -11q6 12 75.5 162.5t132.5 276.5t105 186q41 58 79 58q13 0 25 -6q48 -24 48 -113v-11q-4 -96 -45 -335 q58 140 216.5 377.5t245.5 310.5q38 33 70 33q20 0 38 -13q45 -31 45 -122q0 -14 -1 -30q-3 -40 -14 -85q-24 -102 -90.5 -309t-115 -386t-54.5 -299q0 -8 -1 -15q0 -49 18 -57q3 -1 7 -1q22 0 74 43q124 110 336 436q8 11 19.5 3t4.5 -20q-211 -328 -342 -442 q-41 -35 -77 -47q-15 -5 -29 -6q-21 0 -39 11q-32 18 -47 71q-11 50 -11 110v6q0 64 15.5 150.5t34.5 169t44.5 171t47 155t41.5 122.5q70 201 74 286v5q0 31 -14 32q-9 0 -23 -13q-97 -83 -231 -291t-230 -402q-17 -34 -46 -38.5t-51 23.5q-22 27 -22 73q0 20 1 37 q1 16 2.5 35t2.5 31.5t4 36t4 34.5t5.5 40.5t6 40.5t7.5 48t8 51t2 22q0 13 -5 13q-9 0 -32 -37q-86 -133 -289 -594q-33 -72 -73.5 -158.5t-67.5 -142.5t-35 -76q-17 -42 -56 -42q-32 0 -42 24z" />
<glyph unicode="N" horiz-adv-x="1243" d="M43 45q23 77 77.5 250.5t85.5 277.5t66 252.5t50 270.5q9 25 9 62q1 34 -7 80q-10 62 -44 62q-18 0 -44 -18q-57 -43 -95 -121q-27 -54 -37 -108q-5 -26 -5 -53q0 -28 6 -56q11 -55 49 -92q10 -10 0 -21t-21 0q-43 43 -55 105q-6 31 -7 61q0 29 6 59q12 58 40 118 q41 86 102 131q39 29 76 29q14 0 28 -4q50 -15 72 -77q20 -58 21 -146v-13q0 -82 -12 -166q-12 -91 -35.5 -196t-47.5 -188.5t-51 -164.5q98 199 256 444q125 199 215.5 321t165.5 171q51 30 88 30q25 1 43 -13q46 -34 45 -128q0 -92 -36 -240t-80.5 -282t-87.5 -294 t-54 -267q-2 -21 -2 -37q1 -46 17 -56q4 -2 10 -2q24 0 72 42q85 72 292 392q19 29 29 44q8 11 20 3t5 -20q-11 -17 -50.5 -77.5t-53 -80.5t-45.5 -68.5t-49 -70t-42.5 -54.5t-45.5 -54t-40 -37q-61 -50 -107 -50q-15 0 -28 5q-35 15 -54 55.5t-21 92.5q-1 19 -1 37 q1 31 3 59q4 44 11 86q26 129 64 266t91 307t73 240q15 32 15 86v27q-3 48 -30 48q-14 0 -34 -14q-72 -48 -162.5 -169t-210.5 -312q-96 -150 -204.5 -365.5t-190.5 -406.5q-15 -35 -59 -42q-41 -6 -53 20q-6 12 -1 30z" />
<glyph unicode="O" horiz-adv-x="1171" d="M4 323q20 -133 92 -223q84 -104 208 -114q13 -1 26 -1q113 0 233 85q79 59 150 163q30 -6 60 -6q202 0 421 258q6 7 2 14.5t-11 9t-14 -4.5q-207 -246 -394 -246q-23 0 -46 4q91 145 145 330.5t54 353.5q0 176 -74 273q-42 55 -104 79q-47 18 -95 18q-15 0 -31 -2 q-64 -8 -126 -40q-101 -54 -156.5 -162t-60.5 -231v-20q1 -119 43 -241q46 -132 141 -238t217 -140q-63 -93 -135 -146q-57 -42 -113 -60q-31 -10 -63 -10q-27 0 -55 7q-62 15 -111 69q-65 70 -84 202q-9 62 -9 126q0 70 11 140q21 134 62 254t89 180q10 13 5.5 24 t-16.5 11.5t-25 -9.5q-80 -73 -140 -193q-60 -121 -88 -251q-16 -76 -16 -153q0 -55 8 -110zM368 897q23 148 89 250q33 51 81 87q46 35 98 49q21 6 43 6q31 0 62 -12q53 -20 93 -75q67 -93 67 -256q0 -166 -54.5 -350t-144.5 -328q-122 28 -212.5 136.5t-118.5 238.5 q-14 56 -13 124q-1 61 10 130z" />
<glyph unicode="P" horiz-adv-x="882" d="M41 33q226 663 281 1063q10 25 10 63q0 34 -8 80q-10 62 -44 62q-19 0 -44 -19q-52 -39 -95 -121q-27 -53 -37 -107q-5 -26 -5 -53q0 -29 6 -57q11 -56 49 -92q10 -10 0 -21t-21 0q-43 43 -56 105q-7 32 -7 63q0 29 6 57q12 59 41 118q41 86 102 131q39 28 75 28 q14 0 28 -4q49 -15 73 -76q25 -65 25 -164q0 -134 -45 -331q6 14 28 65.5t32.5 76t34.5 74.5t40.5 79t42.5 70.5t49.5 68t53 53.5t59.5 43q46 26 89 26q1 0 2 -1q42 -1 74 -19q33 -20 58 -56q24 -34 36 -80q9 -37 9 -81q-1 -9 -1 -19q-2 -54 -21 -106q-33 -91 -89.5 -155 t-131 -97.5t-153.5 -48t-175 -14.5q-15 0 -15 14.5t15 14.5q146 0 242.5 44t162.5 156q63 107 63 228v15q-2 112 -57 151q-20 14 -45 14q-29 0 -63 -19q-65 -37 -134 -143t-133.5 -263t-112.5 -289.5t-104.5 -305t-76.5 -227.5q-14 -35 -60 -40q-40 -4 -52 19q-6 12 -1 27z " />
<glyph unicode="Q" horiz-adv-x="1128" d="M72 64q32 22 85 22h5q92 -2 270 -66q128 88 234.5 244t162.5 334q24 77 39 152.5t23 167.5q2 27 2 53q0 64 -14 123q-20 83 -68 137q-58 62 -140 62q-52 0 -114 -25q-130 -53 -232 -189.5t-159 -292.5q-23 -67 -36.5 -138t-15.5 -148q-1 -8 -1 -16q0 -69 19 -134 q22 -72 67 -123q44 -54 116 -77q12 -5 7.5 -18t-17.5 -9q-79 27 -129 86q-48 54 -71 129q-21 70 -21 144v13q2 81 16 155.5t39 146.5q37 102 91.5 196.5t139 179t177.5 121.5q66 27 126 27q101 0 183 -76q65 -60 102 -142.5t43 -172.5q2 -31 2 -61q0 -59 -7 -117 q-12 -87 -40 -172q-60 -186 -176 -342t-268 -244q70 -24 115.5 -38t104.5 -26q51 -10 86 -10h12q38 2 73 18t53 50q5 8 13.5 7t12 -7.5t-0.5 -14.5q-24 -43 -61 -68.5t-82 -30.5q-25 -3 -51 -3q-20 0 -41 2q-48 4 -100 19t-94.5 30t-85.5 32q-12 5 -17 7q-68 -31 -151 -43 q-40 -7 -79 -7q-41 0 -80 7q-48 10 -75 38q-25 28 -25 55q0 30 33 53zM77 31q-20 -27 11 -56q22 -20 62 -30q26 -5 53 -5q83 0 176 50q-9 3 -43.5 17t-50.5 20t-44 14t-51 12q-24 4 -44 4q-50 0 -69 -26z" />
<glyph unicode="R" horiz-adv-x="1044" d="M47 55q52 156 84.5 257.5t74.5 246.5t70.5 278t45.5 259q9 25 9 62q1 34 -7 80q-10 62 -44 62q-18 0 -44 -18q-52 -39 -95 -121q-27 -53 -37 -107q-5 -26 -6 -52q0 -30 6 -58q12 -56 50 -92q10 -10 0 -21t-21 0q-43 43 -56 105q-7 32 -7 63q0 29 6 57q12 59 41 118 q41 86 102 131q39 28 75 28q14 0 28 -4q49 -15 73 -76q25 -62 25 -161q0 -103 -27 -248q123 345 277 420q44 21 82 21q49 0 88 -34q55 -47 70 -125q6 -32 7 -65q0 -45 -13 -90q-21 -77 -66.5 -148t-104.5 -112q-97 -68 -213 -76q26 -16 46 -39t33 -53.5t21.5 -57.5 t13.5 -67.5t7.5 -65.5t5 -69.5t4.5 -63.5q3 -43 4.5 -60t5.5 -44.5t9.5 -40t13.5 -17.5q15 -10 40.5 6.5t56.5 52.5t63 79t66.5 95.5t59 92t48 78t26.5 43.5q5 7 13 5t11 -8.5t-1 -13.5q-13 -21 -57.5 -94t-80 -127.5t-82.5 -118t-91 -99t-80 -36.5h-2q-62 0 -98 52 q-36 53 -41 143q-2 35 -3.5 84t-2.5 78.5t-3.5 67.5t-7 61t-13 49t-20.5 41.5t-30.5 29t-42.5 19.5q-12 3 -10 16t14 13q11 -1 22 -1q118 -1 206 69q96 76 134 208q30 83 30 157q0 38 -8 74q-16 70 -67 70q-24 0 -57 -16q-34 -17 -66 -48.5t-60.5 -77.5t-51 -87t-47 -102 t-37.5 -95.5t-33 -91.5q-27 -76 -92.5 -285.5t-124.5 -392.5q-14 -43 -59 -49q-38 -5 -55 20q-10 16 -3 37z" />
<glyph unicode="S" horiz-adv-x="946" d="M63 -38q-1 9 -1 19q0 47 34 91q86 116 334 174q-20 87 -82 215q-84 178 -109 253q-35 107 -35 205q0 19 1 37q11 155 100 260t248 111h13q92 0 164 -41q78 -44 108 -137q14 -40 14 -88q0 -73 -33 -162q-3 -8 -10.5 -9t-13 5t-2.5 14q29 79 29 146q0 45 -13 84 q-26 78 -84.5 116.5t-132.5 38.5q-67 0 -125 -34.5t-96 -92.5q-41 -65 -49 -153q-2 -26 -2 -51q0 -61 12 -119q18 -82 55 -166q7 -16 81 -168.5t97 -237.5q109 24 201 79t180 153q6 6 13.5 3t10 -10t-2.5 -14q-92 -102 -182.5 -156.5t-213.5 -82.5q8 -39 9 -77 q0 -95 -54 -175q-74 -112 -213 -135q-37 -6 -70 -6q-67 0 -112 24q-60 30 -68 87zM92 -40q10 -46 66 -66q39 -14 76 -14q33 0 65 11q61 20 98 77.5t43 121.5q2 24 2 48q0 39 -6 79q-235 -54 -317 -164q-28 -37 -28 -73q-1 -10 1 -20z" />
<glyph unicode="T" horiz-adv-x="956" d="M5 1134q8 46 42 86t86 60q45 17 99 19h20q43 -1 82 -7q49 -8 107.5 -25.5t105 -35t105.5 -39t100 -33.5q89 122 235 146q34 5 64 5q86 0 143 -42q48 -35 48 -78q0 -6 -1 -13q-10 -57 -95 -83q-31 -9 -71 -13q-31 -3 -66 -3q-87 0 -200 18q-28 -49 -52.5 -126t-38 -136.5 t-34.5 -165.5q-48 -237 -86 -343q-99 -275 -290 -322q-42 -11 -89 -11q-79 0 -129 52q-49 50 -49 129q0 17 14.5 17t14.5 -17q0 -91 70 -131q36 -21 74 -21t79 20q35 17 66 49.5t55.5 81t42.5 92t35 108.5t26 102t22 102t17 81q32 146 69.5 251.5t94.5 203.5 q-41 11 -94.5 32t-98.5 41t-98.5 39.5t-99 31t-95.5 11.5t-92 -16q-55 -21 -85 -67q-29 -46 -30 -92q0 -50 30 -92q29 -42 79 -52q5 -1 8 -4.5t3 -8t-2 -8.5t-6 -6t-9 -1q-49 11 -82 45q-33 35 -43 79q-5 24 -5 48q0 21 4 42zM838 1137q118 -27 202 -27q24 0 45 2 q111 10 125 62q2 7 2 14q0 31 -38 59q-45 32 -102 32q-19 0 -39 -3q-16 -3 -32 -8q-88 -27 -163 -131z" />
<glyph unicode="U" horiz-adv-x="1232" d="M46 940q-5 29 -5 56q-1 33 7 65q14 59 44 115q45 88 105 129q39 26 74 26q15 -1 29 -5q48 -16 73 -77q20 -49 20 -132t-15 -174t-39 -202t-49 -206t-48.5 -196t-32.5 -163q-4 -32 -4 -58q0 -46 13 -70q12 -23 36 -23q17 0 39 12q70 37 146 123.5t140.5 195.5t105 185 t73.5 149q104 234 127 316q11 39 58 51q14 3 26 3q27 0 41 -17q14 -16 6 -44q-17 -57 -97.5 -310t-117.5 -388q-40 -142 -39 -212q0 -66 35 -65h2q12 0 28 9q112 61 406 471q6 7 14 5t11 -8.5t-1 -13.5q-3 -4 -33.5 -46t-43 -58.5t-45 -59.5t-51.5 -66.5t-50.5 -62 t-54.5 -62t-50 -50.5t-50.5 -45t-44.5 -29q-26 -14 -51 -14l-23 3q-37 9 -60 46q-29 48 -29 126q0 53 13 120q41 201 96 377q-116 -238 -192 -357q-149 -233 -289 -301q-34 -15 -61 -15q-10 0 -18 2q-34 7 -56 36.5t-32.5 65.5t-10.5 73v6q1 112 37 296q38 190 83.5 379 t53.5 245q7 58 7 99q0 104 -45 104h-5q-17 -2 -39 -17q-55 -42 -96 -119q-27 -54 -39 -107q-7 -30 -8 -61q0 -23 4 -47q10 -56 47 -94q7 -7 4 -14.5t-10.5 -9.5t-14.5 4q-42 44 -54 106z" />
<glyph unicode="V" horiz-adv-x="1060" d="M48 1052q10 60 38 119q42 88 100 134q39 28 77 28q14 1 27 -3q50 -14 75 -75q19 -48 21 -131q0 -9 -1 -18q-1 -75 -11 -157q-12 -92 -31.5 -203t-39.5 -208t-36.5 -197.5t-20.5 -164.5q-1 -15 -1 -29q0 -62 19 -93q20 -33 56 -33q6 0 12 1q44 6 108 50q110 75 220.5 225 t203.5 340q99 203 159.5 406.5t61.5 347.5q1 9 8.5 12t14.5 -1t6 -13q-1 -148 -62.5 -354.5t-162.5 -409.5q-95 -193 -207 -346t-225 -232q-84 -57 -151 -61h-8q-62 0 -100 52q-40 54 -44 159q-1 16 -1 34q0 109 27 270q31 187 69.5 363.5t43.5 233.5q3 42 3 76 q0 126 -48 125h-6q-17 -3 -39 -19q-51 -39 -90 -121q-27 -54 -37 -108q-5 -25 -4 -51q0 -29 6 -58q12 -55 51 -92q7 -7 4.5 -15t-10 -10t-14.5 4q-44 42 -58 103q-8 35 -8 69q1 25 5 51z" />
<glyph unicode="W" horiz-adv-x="1503" d="M46 940q-5 29 -5 56q-1 33 7 65q14 59 44 117q45 85 105 129q39 26 75 26q15 0 30 -5q49 -16 71 -77q22 -63 23 -149v-10q0 -80 -14 -160q-15 -85 -39 -185t-48 -185.5t-45 -177t-27 -155.5q-2 -23 -2 -43q0 -112 70 -112h6q77 5 197 119q65 61 96 110q-1 21 -1 42 q-1 85 21 177q28 116 92 170q19 16 42.5 24.5t42 -1t16.5 -41.5q-4 -86 -107 -256q0 -62 6 -124t28.5 -136t60.5 -105q25 -20 55 -20q40 0 88 35q75 53 165.5 170t170.5 265t139.5 311.5t74.5 309.5q4 39 4 75q0 100 -30 183q-4 8 1 15t12 7t12 -7q37 -86 37 -196 q0 -70 -16 -150q-38 -204 -129 -406t-210 -369t-219 -235q-59 -40 -120 -40q-30 -1 -60 9q-92 28 -139 131q-24 52 -33 119q-34 -44 -75 -84t-86 -72t-89 -51q-41 -18 -79 -18h-3q-40 1 -70 23t-47.5 77t-17.5 139q0 119 36.5 286.5t80 324.5t51.5 211q7 58 7 99 q0 104 -45 104h-5q-17 -2 -39 -17q-55 -38 -96 -119q-27 -52 -39 -105q-7 -30 -8 -61q0 -24 4 -48q10 -56 47 -95q7 -6 4 -13.5t-10.5 -9.5t-14.5 3q-42 44 -54 106zM700 483q62 114 74 183q4 18 -3 18q-5 0 -15 -16q-45 -65 -56 -185z" />
<glyph unicode="X" horiz-adv-x="1310" d="M1 -28.5q4 7.5 13 8.5q47 4 100 29.5t97 58.5t98 89.5t88.5 97t83.5 107t68.5 94.5t56.5 83q-5 534 -108 692q-45 68 -99 68q-21 0 -43 -10q-63 -29 -103 -121q-31 -70 -31 -137q0 -27 5 -54q2 -9 -4.5 -13.5t-14.5 -2t-9 11.5q-2 23 -2 45q-1 53 11 102q16 70 52 118 q34 48 80 76q40 24 87 25q7 0 13 -1q54 -4 105 -42q77 -56 127 -209t53 -368q5 8 49 77.5t68 105.5t72 107.5t83 116t77.5 96.5t79 83.5t65.5 44.5q8 4 14 -1t6 -13t-8 -13q-36 -21 -89.5 -81.5t-114.5 -147t-112 -163.5t-110 -169.5t-82 -126.5q-1 -26 -1 -53 q0 -116 14 -259q17 -176 55 -255q29 -58 71 -68q9 -2 17 -2q34 0 69 31q30 25 59 55t60.5 70t52 66t55.5 77.5t46.5 68.5t49 75t40.5 63q5 7 12.5 5.5t10.5 -8t-1 -14.5q-5 -8 -41 -65t-48.5 -75.5t-46.5 -69t-55.5 -78t-53.5 -67.5t-62.5 -71t-62.5 -59q-58 -48 -117 -48 q-24 0 -50 9q-84 29 -124 131q-26 69 -44 179.5t-20 195.5q-35 -48 -58 -79t-69 -89.5t-82.5 -98t-88 -89t-96.5 -81t-97.5 -54.5t-100.5 -27q-11 -1 -15 6t0 14.5z" />
<glyph unicode="Y" horiz-adv-x="1175" d="M46 940q-5 29 -5 56q0 33 7 65q14 59 44 115q45 88 105 129q39 27 75 27q15 0 30 -5q49 -16 71 -78q15 -42 17 -107v-18q0 -58 -9 -126q-10 -79 -26.5 -164t-38 -177t-41.5 -174t-38.5 -166t-27.5 -141q-5 -34 -5 -61q0 -42 13 -66t37 -24q17 0 39 12q51 27 103.5 78.5 t103.5 124t93 140t90 160.5t75.5 149.5t66.5 139.5q11 24 38 32.5t48.5 -3.5t18.5 -39q-12 -119 -51 -308t-86 -357q122 75 195.5 139.5t187.5 210.5q5 7 13 5t11 -8.5t-2 -13.5q-107 -139 -188.5 -211.5t-229.5 -162.5q-20 -67 -52 -140t-76 -149.5t-102 -137.5t-118 -87 q-39 -17 -70 -17h-10q-35 4 -49 33q-6 13 -6 31q0 24 10 57q27 77 110 174t226 195q10 30 20 63t18 60.5t18 66t16 61.5t16 66.5t14.5 62t15 66.5t13.5 62t14 66.5t13 62.5q-48 -99 -87 -174.5t-97 -174.5t-122 -179.5t-128 -133.5q-47 -39 -95 -52q-18 -5 -36 -5 q-29 0 -56 14q-45 21 -67 82q-15 35 -15 96q0 16 1 34q5 87 22 177t45 199.5t53.5 199.5t47.5 175.5t28 128.5q7 58 7 99q0 104 -45 104h-5q-17 -2 -39 -17q-55 -42 -96 -119q-27 -54 -39 -107q-8 -30 -8 -61q0 -24 4 -47q10 -56 47 -94q7 -7 4 -14.5t-10.5 -9.5t-14.5 4 q-42 44 -54 106zM336 -305q-9 -29 -9 -48q0 -20 9 -30q7 -7 18 -7q19 0 49 23q52 39 111.5 137.5t114.5 256.5q-125 -91 -197.5 -177.5t-95.5 -154.5z" />
<glyph unicode="Z" horiz-adv-x="1110" d="M25 -252q6 44 24 86t42 77t60.5 69.5t70.5 60.5t82 54t85 47.5t88.5 42t83.5 35.5t80 32q5 39 5 75q0 167 -101 253q-72 -51 -135 -56h-10q-43 0 -63 32q-13 20 -13 40q0 17 9 35q19 39 70 43q9 1 18 1q49 0 114 -22q51 66 122.5 208t114.5 202q-15 3 -54 11t-66 13 t-70 12t-75.5 9t-72.5 2q-3 0 -6 1q-36 0 -65 -6q-31 -6 -61 -16.5t-52.5 -30t-36.5 -46.5q-2 -4 -5 -6t-6 -2.5t-6.5 0t-5.5 2.5t-4 4.5t-2 6t2 7.5q15 36 43.5 60.5t61 37t79.5 16.5q35 3 66 4h20q39 -2 94 -9.5t89 -14t84.5 -17t69.5 -14.5q85 99 177 99h5q55 -1 73 -35 q7 -12 7 -24q0 -22 -21 -44q-25 -26 -74 -34q-28 -5 -55 -5q-21 0 -41 3q-33 -48 -74.5 -132t-86.5 -158.5t-107 -133.5q81 -50 124.5 -136.5t43.5 -185.5q234 93 346 203q7 6 14.5 2.5t9.5 -10.5t-4 -13q-123 -119 -366 -213q-5 -99 -53 -214t-121 -214t-173.5 -169.5 t-201.5 -80.5q-26 -4 -48 -4q-65 0 -103 32q-41 36 -41 99q0 14 2 29zM53 -256q-2 -15 -2 -28q1 -60 45 -84q24 -13 54 -13q41 0 94 23q96 42 182 141.5t139.5 214t71.5 221.5q-54 -20 -95 -36t-102 -44t-107 -55t-97 -65.5t-86.5 -78t-62 -90.5t-34.5 -106zM358 620 q-11 -25 5 -48t47 -17q41 7 88 57q-54 33 -95 33q-34 0 -45 -25zM885 1073q11 -1 21 -1q78 0 112 34q15 17 8 32.5t-31 14.5q-49 0 -110 -80z" />
<glyph unicode="a" d="M-18 444q8 48 34 86q53 75 148 75q30 0 63 -7q10 25 36 31t46 -10t13 -46q-3 -11 -14.5 -45.5t-18.5 -58t-14.5 -55t-8.5 -52.5q0 -5 -1 -9q0 -42 25 -43q22 0 62 35q66 56 138 154l4 5q5 8 13 7t11.5 -7.5t-0.5 -14.5q-43 -60 -106 -127t-109 -86q-33 -12 -57 -12 q-11 0 -21 3q-29 8 -41 39q-11 30 -11 64q0 38 11 79q-28 -61 -59 -95q-20 -21 -44 -31t-48.5 -2.5t-40.5 35.5q-13 28 -13 60q0 13 3 28zM63 426q-4 -24 4 -45t31 -8q27 17 62.5 79.5t56.5 114.5q-55 0 -100 -42.5t-54 -98.5z" />
<glyph unicode="b" d="M-55 279q-2 9 0 20q37 153 123 446q17 58 36 114t53 136t67.5 139.5t77.5 104t87 49.5q30 3 48 -5t28 -36q8 -24 8 -58q0 -24 -4 -52q-8 -60 -32 -127.5t-64.5 -141.5t-105.5 -147.5t-146 -130.5l-49 -180q55 104 90 141q52 58 93 58q18 0 33 -11q41 -29 41 -111 q-1 -48 -18 -96q66 16 106.5 39.5t76.5 73.5q5 7 12.5 5t10.5 -8.5t-1 -13.5q-41 -57 -89 -83.5t-128 -45.5q-36 -70 -104 -96q-32 -12 -55.5 -12t-39.5 12q-12 9 -12 23.5t14 29.5q32 32 123 56q15 39 19 83q1 14 1 27q0 29 -7 56q-6 20 -21 19t-35 -24q-37 -40 -112 -188 l-27 -53q-17 -33 -56 -35q-35 -2 -42 23zM121.5 283.5q6.5 -5.5 23.5 -2.5q41 9 66 55q-53 -15 -80 -35q-16 -12 -9.5 -17.5zM135 635q135 106 212 246t93 258q5 31 5 55q0 29 -7 47q-11 33 -43 8q-27 -21 -67 -88q-84 -142 -193 -526z" />
<glyph unicode="c" horiz-adv-x="395" d="M-14 322q-17 33 -17 71q0 39 18 83q36 88 99 124q29 18 63 18h9q40 -3 69 -32q8 -8 -1 -19t-19 -2q-12 10 -25 10q-20 0 -42 -21q-38 -36 -60 -96q-20 -51 -19 -89v-13q3 -32 29.5 -43t57.5 -6t57 19q53 26 104.5 75.5t85.5 102.5q5 7 13.5 5t12 -8.5t-0.5 -13.5 q-35 -53 -88.5 -104.5t-106.5 -79.5q-35 -19 -78 -30q-23 -6 -48 -6q-21 1 -43 5q-48 10 -70 50z" />
<glyph unicode="d" horiz-adv-x="514" d="M-29 420q14 94 85 150q50 39 110 39q26 0 53 -7q19 81 46 169.5t68 198.5t94.5 193.5t107.5 110.5q33 18 56 18q5 0 11 -2q26 -6 34.5 -30t10.5 -56q0 -6 1 -13q0 -26 -7 -52q-22 -137 -106.5 -293t-219.5 -256q-42 -139 -42 -218q0 -22 3 -40q3 -16 12.5 -22t21.5 -3.5 t24.5 9.5t23.5 16q78 64 156 172q6 8 14 7t11.5 -7.5t-0.5 -14.5q-83 -116 -154 -174q-23 -19 -50 -31t-58.5 -11t-51.5 24q-35 40 -35 114v15q-52 -83 -90 -109q-33 -20 -60 -20q-24 0 -42 17q-29 27 -29 76q0 14 2 30zM65 390q1 -29 15 -36q12 -5 28 9t35 43.5t29.5 47 t24.5 44.5l14 73q-8 1 -15 1q-62 0 -106 -76q-10 -18 -18 -47.5t-7 -58.5zM328 637q118 97 191 239.5t93 266.5q7 44 7 71q0 20 -4 31q-9 25 -35 2.5t-62 -86.5q-37 -63 -77 -171t-59 -170t-54 -183z" />
<glyph unicode="e" horiz-adv-x="385" d="M-27 360q-4 19 -4 38q1 20 5 40q8 38 28 70q30 52 82 82q43 25 93 25q10 0 20 -1q28 -3 38 -21t-6 -44q-27 -39 -135 -66q-38 -56 -38 -105q0 -8 1 -16q3 -38 42 -50q12 -4 26 -4q31 0 70 18q47 22 101.5 77t88.5 101q6 8 14 7t11.5 -7.5t-0.5 -14.5q-37 -52 -94 -108.5 t-113 -87.5q-47 -25 -101 -27q-2 0 -5 -1q-51 0 -87 30q-29 25 -37 65zM117 520q77 21 92 45q6 9 1.5 15t-13.5 4q-21 -1 -43 -21t-37 -43z" />
<glyph unicode="f" horiz-adv-x="378" d="M-76 61q1 68 13.5 152t24.5 137t36 148q23 94 51 188t72.5 217t101.5 219t117 138q39 30 75 30q8 0 15 -2q43 -7 51 -69q1 -15 1 -30q0 -26 -3 -52q-17 -131 -105 -284t-241 -263q-53 -189 -59 -215q109 2 180.5 27t124.5 102q9 12 19.5 4.5t2.5 -19.5 q-53 -82 -132.5 -111.5t-184.5 -31.5q37 -56 49 -129q7 -45 7 -85q0 -26 -2 -49q-8 -61 -27 -116q-20 -62 -52 -90q-22 -17 -45 -14t-43 22q-47 42 -47 161v15zM20 -96q7 -18 21 -4q25 21 43 77q18 51 26 107q3 23 3 48q0 36 -7 76q-11 68 -45 120q-22 -101 -38 -215 q-12 -88 -12 -142q0 -47 9 -67zM145 635q136 108 213 247.5t93 256.5q4 25 4 46q0 14 -2 27q-5 46 -26 46q-13 0 -30 -15q-20 -18 -41.5 -50.5t-38.5 -65t-37.5 -84t-33.5 -86t-32 -94.5t-26.5 -84.5t-24 -81.5t-18.5 -62z" />
<glyph unicode="g" d="M-256 -319q-7 25 -7 53q0 38 11 82q20 77 78 157q55 76 129 130.5t188 119.5l50 193q-15 -27 -33 -51q-70 -93 -135 -93q-23 0 -40.5 16t-23.5 42q-4 19 -4 39q0 34 12 70q19 57 56 98q38 44 87 59q21 7 45 7q34 0 74 -13l2 6q8 27 33 34t45.5 -6.5t16.5 -37.5 q-5 -34 -27.5 -130.5t-40.5 -160.5q156 97 234 209q5 7 13.5 5.5t12 -8t-1.5 -14.5q-94 -127 -268 -233q-58 -210 -87 -290q-121 -335 -292 -363q-15 -2 -29 -2q-32 0 -54 13q-31 19 -44 69zM-229 -313q18 -59 59 -59q6 0 12 1q68 14 138 148q72 135 151 407 q-98 -58 -165.5 -109.5t-117.5 -117.5q-54 -73 -72 -145q-10 -43 -10 -78q0 -25 5 -47zM53 367q0 -34 15 -37q5 -1 10 0t11.5 5t11 7.5t11 10.5t9.5 10t9 11l7 7q43 50 86 180q-9 1 -17 1q-58 0 -102 -58q-51 -68 -51 -137z" />
<glyph unicode="h" horiz-adv-x="505" d="M-45 293q171 862 383 981q22 13 44.5 17t44 -5t30.5 -35t10 -63q0 -22 -4 -49q-9 -82 -44 -173t-112 -196t-182 -182l-53 -209q86 137 133 182q25 25 52 30t45 -15q14 -16 14 -47q0 -7 -1 -15q-4 -55 -27.5 -144t-29.5 -128q-6 -36 9 -32q13 3 52 46q76 82 187 248 q6 8 14.5 7.5t11.5 -7.5t-2 -15q-111 -166 -188 -253q-58 -63 -88 -70q-25 -5 -44 5t-26 32q-5 14 -7 33t-1.5 38t3.5 43.5t6 42.5t8.5 43t9 37.5t8.5 32.5t6 23q8 34 4 35q-5 2 -31 -29q-70 -87 -137 -215q-17 -32 -42.5 -38.5t-42.5 8t-13 36.5zM139 633q133 109 207 250 t88 260q4 25 4 46q0 30 -8 52q-9 30 -37 14q-30 -20 -71 -92q-36 -65 -74.5 -172.5t-57.5 -173.5t-51 -184z" />
<glyph unicode="i" horiz-adv-x="325" d="M-29 319q-3 12 -3 28q0 66 50 214q12 36 52 38q34 1 46 -22q5 -11 1 -24q-50 -159 -56 -182q-4 -17 -4 -29q0 -26 20 -26q50 0 225 165q20 20 24 23q6 6 13.5 2.5t9 -10.5t-4.5 -13q-3 -3 -25.5 -24.5t-43 -40.5t-49 -44t-59 -47t-56.5 -36q-37 -20 -71 -20q-10 0 -18 1 q-42 7 -51 47zM55 690q0 23 16 38t40 15q23 0 38 -15t15 -38t-16 -39t-39 -16t-38.5 16t-15.5 39z" />
<glyph unicode="j" horiz-adv-x="309" d="M-465 -324q-2 15 -2 31q0 70 45 160q113 223 356 366q23 89 49 200.5t31 129.5q10 34 49 38q36 4 48 -20q5 -10 2 -24q-22 -104 -62 -252q191 113 258 199q5 7 13 5t11.5 -9t-1.5 -15q-11 -14 -24 -28t-29.5 -28t-29 -25t-33.5 -26t-32.5 -23t-36.5 -24t-34 -22 t-37 -23.5t-35 -21.5q-80 -302 -143 -436q-109 -218 -240 -234q-9 -1 -17 -1q-34 0 -63 16q-35 20 -43 67zM-436 -315q7 -38 33.5 -48t50.5 5q29 14 57.5 46.5t50.5 67.5t46.5 91t38.5 92.5t34 99.5t26.5 84.5t20.5 71.5q-216 -138 -319 -342q-41 -84 -41 -144q0 -13 2 -24z M41 688q0 23 15.5 39t37.5 16q23 0 39.5 -16t16.5 -39t-17 -39t-41 -16q-22 0 -36.5 16t-14.5 39z" />
<glyph unicode="k" horiz-adv-x="481" d="M-43 299q11 73 34.5 176t63 234.5t85.5 246t107 205.5t122 117q27 12 48 12q39 0 54 -43q8 -24 8 -58q0 -24 -4 -52q-18 -132 -105 -284.5t-241 -262.5q-47 -178 -53 -203q62 109 104 160q45 53 77 53q12 0 22 -7q22 -17 22 -55q0 -12 -2 -26q-11 -76 -73 -119 q-21 -14 -44 -22q4 -70 30 -131q15 -35 37 -36q15 0 34 19q77 77 198 281q5 7 12.5 7t12.5 -7t0 -15q-4 -7 -28 -45.5t-34 -54t-32.5 -49.5t-37.5 -54t-35 -44t-38 -41q-31 -29 -67 -31q-3 0 -6 -1q-34 0 -64 30q-24 25 -35.5 74t-11.5 92q0 8 8 12q66 20 99 88q14 32 14 51 q0 10 -4 18q-12 20 -46 -26q-46 -59 -133 -217q-14 -24 -39 -30t-43.5 5.5t-15.5 32.5zM143 635q135 108 213.5 248.5t92.5 255.5q2 24 2 44q0 36 -7 56q-13 37 -47 6q-37 -32 -74.5 -101.5t-75 -177.5t-53.5 -158.5t-45 -152.5q-2 -4 -2.5 -6.5t-1.5 -6.5t-2 -7z" />
<glyph unicode="l" horiz-adv-x="374" d="M-12 242q-10 38 -10 90q0 115 51 297q22 82 49.5 164.5t72.5 194t103 191.5t117 101q22 8 40 8q40 0 54 -41q8 -24 8 -58q0 -24 -4 -52q-18 -132 -105 -284.5t-241 -262.5q-5 -18 -22 -81.5t-24 -92.5t-14.5 -77.5t-7.5 -86.5q0 -32 11 -42.5t30 -1.5t34 20.5t32 27.5 q58 54 126 137t87 111q5 7 13 5.5t11 -8t-2 -14.5l-11 -14q-10 -14 -21 -29t-28 -37t-35 -44t-38 -45.5t-41.5 -45.5t-40.5 -39q-54 -47 -78 -55q-20 -7 -37 -7q-21 0 -37 10q-30 18 -42 61zM135 635q93 73 161.5 169.5t101 178.5t42.5 156q4 27 4 49q0 28 -6 51 q-7 19 -20 19t-33 -17q-19 -19 -55 -80q-40 -72 -76 -162.5t-58.5 -162t-51.5 -169.5q-6 -21 -9 -32z" />
<glyph unicode="m" horiz-adv-x="710" d="M-47 328q21 116 65 233q13 35 53 35q33 0 43 -22q4 -10 1 -21q-59 -190 -61 -202q-2 -16 8 -1q7 9 18 29q52 90 92 135q23 29 53 29q3 -1 7 -1q34 -4 44 -42q6 -21 6 -46.5t-6 -56.5q8 11 54.5 84t70.5 97q20 19 42 22t37.5 -10t23.5 -40q4 -14 4 -30.5t-4 -36.5 q-4 -23 -26 -112t-25 -135q-1 -25 8.5 -27.5t21.5 10.5q112 107 228 285q5 8 13.5 7t12 -7.5t-1.5 -14.5q-52 -80 -128.5 -176.5t-125.5 -130.5q-19 -13 -38 -13q-11 1 -23 5q-30 12 -39 49q-4 16 -4 42q0 66 29 193q17 70 17 88q0 6 -2 7q-6 2 -24 -24q-9 -11 -20 -29 q-10 -15 -46.5 -72.5t-47.5 -71.5q-22 -26 -45 -26q-22 -1 -36 27q-9 18 -9 46q0 14 2 31q2 20 2.5 31.5t-2.5 16.5t-10.5 -1.5t-20.5 -25.5q-16 -22 -31 -46.5t-33 -56t-28 -47.5q-19 -31 -50.5 -40.5t-53.5 7.5t-15 56z" />
<glyph unicode="n" horiz-adv-x="546" d="M-31 346q0 76 51 225q11 33 52 37q36 3 46 -19q5 -10 1 -22l-37 -129q-23 -81 -23 -90t20 19q9 11 23 32q90 127 131 168q31 34 64 36.5t52 -27.5q13 -21 13 -54q0 -14 -2 -30q-6 -43 -25.5 -117t-25.5 -103q-4 -21 -4.5 -34.5t4 -20t17.5 2t34 32.5q34 39 80 100.5 t73.5 102t33.5 49.5q6 8 15 7.5t12.5 -7.5t-1.5 -15q-1 -1 -15.5 -23t-33.5 -49t-42.5 -60t-50 -66.5t-48.5 -57.5q-23 -26 -49 -44t-57 -17.5t-46 39.5q-9 20 -9 53q0 28 6 60q6 34 11.5 61.5t13 59t9.5 38.5q6 34 6 50q0 15 -5 16q-8 1 -30 -25q-34 -39 -83 -110t-72 -99 q-20 -24 -45.5 -31t-44.5 8.5t-19 53.5z" />
<glyph unicode="o" horiz-adv-x="464" d="M-29 408q3 77 51 124q33 32 77 32q20 0 42 -7q19 41 54 46q4 1 8 1q30 0 51 -33q18 -35 18 -83q0 -14 -2 -28q-6 -66 -30 -110q12 -3 25 -3q45 0 91 36q60 46 109 121q7 12 19 4.5t5 -19.5q-51 -81 -121 -131q-54 -38 -108 -38q-17 0 -35 4q-54 -64 -125 -64 q-62 0 -96 44q-33 41 -33 97v7zM53 403v-11q1 -42 21 -70q19 -26 51 -26q7 0 14 1q33 7 56 37q-43 20 -59 74q-11 35 -10 70q0 18 3 36q-32 -7 -52.5 -39.5t-23.5 -71.5zM157 485v-5q0 -38 13 -74q14 -38 41 -48q23 36 31 98q2 17 2 32q0 41 -15 69q-15 23 -31 18.5 t-28 -26.5q-12 -23 -13 -64z" />
<glyph unicode="p" horiz-adv-x="499" d="M-152 -260q-1 20 -1 41q0 93 25 219q30 154 82.5 342.5t65.5 249.5q5 24 31.5 33.5t49.5 -1.5t18 -38l-13 -54q17 19 37 34t43.5 26t48.5 9t46 -19q29 -25 35 -66q3 -17 3 -34q0 -23 -5 -46q-9 -38 -27 -76q75 19 121 50t92 94q5 7 13 5t11 -8.5t-2 -13.5 q-54 -75 -107 -107.5t-147 -53.5q-41 -58 -88 -76q-30 -12 -52 -12q-21 0 -35 10q-26 16 2 43q30 28 104 49q31 81 31 150q0 10 -1 20q-3 56 -29 56q-22 0 -59 -39q-24 -26 -49 -62q-24 -99 -51 -201q41 -126 41 -276v-11q-2 -157 -49 -286q-21 -53 -43 -78q-23 -26 -56 -19 q-39 10 -61 52.5t-25 93.5zM-70 -305q9 -70 27 -70q5 0 12 8q19 19 35 68q23 61 36 141q12 71 12 156v26q-2 101 -25 189q-36 -130 -55 -206t-34 -167q-10 -63 -10 -107q0 -21 2 -38zM118.5 272.5q-1.5 -4.5 2.5 -5.5t12 1q27 9 45 35q-34 -11 -49 -20q-9 -6 -10.5 -10.5z " />
<glyph unicode="q" horiz-adv-x="528" d="M-27 420q6 104 89 157q63 41 135 41q22 0 45 -4q4 7 13.5 24.5t14.5 25.5q9 15 33 19.5t41.5 -8.5t11.5 -42q-32 -133 -98 -354q146 72 270 225q9 11 20.5 2t2.5 -21q-133 -161 -297 -241q28 -94 32 -204q1 -25 1 -48q0 -81 -11 -148q-13 -88 -38 -153q-18 -51 -41 -78 q-15 -17 -38 -17q-13 0 -28 5q-49 19 -65 89q-11 44 -11 97q0 29 3 61q9 88 35 202.5t53 204.5t56 182.5t36 119.5q-8 -13 -32.5 -55.5t-40 -67.5t-41 -53.5t-48.5 -40.5q-18 -9 -35 -9q-20 0 -37 11q-31 20 -31 69v9zM63 395.5q5 -12.5 15.5 -12t21.5 13.5q18 20 39.5 53.5 t45.5 74.5t34 57q-52 -9 -98 -54t-58 -98q-5 -22 0 -34.5zM137 -305q9 -69 25 -70q6 0 14 8q18 21 35 66q22 61 35 139q12 71 12 162v14q-1 98 -22 185q-100 -346 -100 -478q0 -14 1 -26z" />
<glyph unicode="r" horiz-adv-x="385" d="M-67 575q-2 14 -2 26q0 35 16 63q22 45 74 65q20 7 36 7q25 0 38 -18q9 -15 9 -37q0 -15 -4 -34q-17 -72 -65 -141q11 -4 33.5 -10t37.5 -11t30.5 -13.5t21 -23t0.5 -34.5q-2 -9 -22 -73t-25 -97q-4 -20 0 -29.5t14 -8.5t21.5 7.5t25.5 17.5q43 33 102.5 110.5 t110.5 162.5q8 12 21 5t6 -20q-142 -221 -224 -282q-49 -37 -92 -37h-6q-57 3 -65 76q-1 11 -1 21q0 23 4 45q6 32 20.5 70.5t17.5 49.5q4 10 2.5 15t-9.5 8q-43 15 -79 41q-39 28 -47 79zM2 639q-16 -43 -15 -72q0 -34 21 -49q45 71 62 133q12 47 -12 47q-22 -1 -44 -34 q-7 -12 -12 -25z" />
<glyph unicode="s" horiz-adv-x="462" d="M-84 102q21 71 152 148q-7 27 -20 66l-22 66t-18.5 66.5t-9.5 67.5t6 70q22 94 115 129q30 13 60 13h14q38 -4 68.5 -18.5t46.5 -47.5q10 -22 10 -48q0 -13 -3 -28q-2 -9 -9.5 -10.5t-14 3.5t-4.5 13q2 11 2 20q0 44 -39 66q-20 11 -40 10l-54 -20q-40 -25 -54 -90 q-6 -23 -6 -48.5t3 -47t10.5 -48.5t14 -46.5t17 -47.5t15.5 -45q58 25 89.5 40.5t75 41t77.5 56.5t65 71q6 7 14 5t11 -8.5t-1 -13.5q-33 -43 -68.5 -75.5t-82 -59.5t-78 -42.5t-94.5 -43.5q10 -40 10 -76q0 -44 -14 -84q-25 -72 -105 -98q-26 -6 -51 -6q-11 0 -22 2 q-36 4 -58 30q-13 17 -13 39q0 14 5 29zM-57 94q-8 -32 10 -49t47 -12t49 28q31 36 31 100q0 28 -6 60q-116 -69 -131 -127z" />
<glyph unicode="t" horiz-adv-x="362" d="M-51 984.5q-1 6.5 6 12.5q31 24 85 25h8q51 0 102 -12l10 30q11 35 52 36q35 1 45 -22q4 -9 1 -18l-14 -43q44 -7 80 -7q70 0 108 28q7 6 14.5 2t9 -11.5t-4.5 -13.5q-44 -33 -127 -33q-39 0 -88 7q-47 -149 -74 -239t-61.5 -234t-45.5 -244q-4 -47 18 -45q18 3 68 47 q59 53 132.5 141t88.5 113q6 8 14 7t11.5 -7.5t-0.5 -14.5q-15 -24 -91 -115t-136 -145q-63 -59 -109 -59q-8 0 -16 2q-33 8 -46.5 42.5t-13.5 74.5v5q0 222 164 689q-54 9 -92 9q-52 0 -76 -17q-7 -5 -14 -1t-8 10.5z" />
<glyph unicode="u" horiz-adv-x="569" d="M-20 354q-1 11 -1 22q0 89 50 212q11 29 52 33q39 5 48 -18q4 -9 0 -21q-1 -3 -8 -23q-49 -140 -50 -188q0 -25 14 -25q15 -1 44 27q54 51 102.5 113t57.5 89q12 36 52 41q35 3 45 -21q5 -10 1 -24q-76 -248 -76 -338q0 -31 15 -30q24 0 88 83q104 134 155 218 q5 8 13.5 7t12 -7.5t-0.5 -14.5q-45 -76 -117 -172.5t-121 -130.5q-25 -19 -53 -19q-9 -1 -17 1q-36 8 -53 49q-9 21 -9 55q0 74 40 211q-32 -42 -48.5 -63.5t-48 -53.5t-56.5 -47q-48 -26 -78 -26q-11 0 -19 3q-32 12 -34 58z" />
<glyph unicode="v" horiz-adv-x="591" d="M-8 398q0 12 -1 23q0 86 17 150q7 29 35 39.5t51.5 -2.5t18.5 -41q-23 -120 -23 -205q0 -50 8 -88q14 -65 50 -65q32 0 82 54q40 44 79 106q-36 37 -52 90q-12 40 -12 78q0 12 1 24q5 49 31.5 89.5t68.5 54.5q30 13 61 3.5t35 -44.5q1 -7 1 -14q0 -46 -26 -116 q-30 -82 -65 -145q28 -28 60 -28l1 1q32 0 67.5 24.5t63.5 55t48 62.5q5 8 13.5 6.5t12 -8.5t-1.5 -15q-108 -154 -212 -154q-36 0 -72 19q-20 -35 -45 -67.5t-61 -64.5q-34 -31 -68 -44q-15 -6 -31 -6q-19 0 -39 9q-36 16 -65 67t-31 152zM314 544q-2 -18 -2 -35 q0 -53 22 -91q81 157 81 229q0 7 -1 12q-1 12 -7 16.5t-14 2t-15 -7.5t-13 -11q-42 -39 -51 -115z" />
<glyph unicode="w" horiz-adv-x="843" d="M-27 283q-7 18 -7 47q0 75 48 221q11 35 49 41q35 4 47 -20q6 -12 1 -29q-54 -171 -54 -235q0 -13 6 -12q21 0 107 129l47 75q17 29 51.5 23t34.5 -40v-29.5t1 -43.5t4 -51t8 -52t13.5 -46.5t21 -35t29 -17.5t38.5 7q64 31 137 191q-63 44 -82 120q-7 26 -7 53 q0 36 12 74q22 65 77 90q29 16 58.5 10.5t39.5 -38.5q6 -20 6 -46q0 -87 -65 -245q36 -33 76 -33q7 0 15 1q49 7 91 38t68 74q5 8 13.5 6.5t12 -9t-1.5 -16.5q-62 -87 -136 -113q-28 -10 -56 -10q-47 0 -96 27q-72 -158 -152 -203q-45 -24 -81 -24q-13 0 -24 4 q-44 12 -71 55q-28 43 -38 99q-7 38 -7 76q0 18 2 36q-23 -41 -69 -100.5t-77 -77.5q-24 -16 -50.5 -10t-39.5 39zM573 449q58 149 58 223q0 20 -4 35q-7 20 -19 20t-30 -18q-46 -49 -46 -124q0 -81 41 -136z" />
<glyph unicode="x" horiz-adv-x="485" d="M-96 176q12 72 127 172q-29 99 -35 193q-1 16 8 28t23 16t28.5 3t25 -12t11.5 -29q3 -47 21 -135q34 26 48 37t47 39.5t52 52.5t27 45q3 9 10.5 9.5t13 -5.5t2.5 -15q-6 -17 -20.5 -36t-28 -34t-37.5 -36t-36.5 -31.5t-39 -31.5t-32.5 -25q4 -17 7 -26t8.5 -28t11 -30 t13.5 -26.5t17 -22.5t19.5 -13t23.5 -4.5t27 11.5q49 31 104.5 94t134.5 168q6 7 14 5.5t11.5 -8.5t-0.5 -14q-80 -109 -143 -180t-117 -102q-38 -22 -71.5 -22.5t-59 18.5t-44.5 47.5t-34 68.5q-99 -85 -109 -145q-2 -8 -9.5 -11t-14 2t-4.5 13z" />
<glyph unicode="y" horiz-adv-x="532" d="M-227 -326q-7 25 -7 55q0 38 11 83q19 80 76 161q51 75 128 134.5t191 128.5q33 115 59 239l-9 -15q-10 -14 -12.5 -18t-12.5 -19t-15 -21.5t-15 -21t-16.5 -22t-16.5 -19.5t-17.5 -19.5t-17 -15.5t-17.5 -13q-28 -18 -52 -18q-11 0 -20 3q-33 12 -37 58q-1 6 -1 13 q0 32 11 87q13 69 35 133q12 37 51 42q34 4 45 -20q5 -12 1 -28q-1 -4 -11.5 -41.5t-20 -77.5t-13.5 -69q-5 -51 20 -37q38 22 116 155q41 71 46 93q8 39 47 43q34 3 49 -21q7 -12 4 -26q-23 -120 -63 -275q164 97 243 199q6 8 14.5 6.5t12 -8.5t-1.5 -15 q-48 -60 -115 -111.5t-163 -111.5q-16 -58 -24.5 -90t-32 -105t-42 -120.5t-49 -113t-60 -107.5t-68.5 -78t-79 -49q-27 -9 -50 -9q-24 0 -45 10q-41 18 -56 72zM-199 -315q11 -40 36 -52.5t59 7.5q125 74 264 555q-100 -61 -169.5 -116t-115.5 -122q-52 -77 -69 -149 q-11 -42 -11 -76q0 -26 6 -47z" />
<glyph unicode="z" horiz-adv-x="518" d="M-201 -205q0 46 32.5 106.5t96.5 118.5q29 27 66.5 54t61.5 42t73 43.5t64 37.5q-14 57 -76 79q-34 12 -35.5 33t27.5 41q120 83 124 160q0 28 -19 44.5t-48 16.5q-77 0 -143 -84q-5 -7 -13 -5.5t-11.5 8t1.5 14.5q28 39 69 66.5t85 33.5q12 2 24 2q46 0 84 -26 q41 -28 42 -77q0 -7 -1 -14q-2 -15 -7 -28.5t-10 -23.5t-16 -21.5t-17 -18t-21 -17t-20.5 -14t-23.5 -15t-22 -13.5q-22 -13 4 -23q72 -30 96 -75q76 48 145 120t107 144q8 12 20.5 5t6.5 -20q-55 -94 -115 -156.5t-149 -117.5q16 -40 16 -83q-1 -34 -11 -70 q-22 -80 -72.5 -151.5t-118 -125t-130.5 -72.5q-34 -9 -66 -9h-10q-37 2 -63.5 25.5t-26.5 65.5zM-170 -203q0 -25 12 -39.5t35 -11.5q73 9 150 85t124 171t46 164q-14 -8 -50.5 -29t-55 -32.5t-47.5 -30t-52.5 -37t-44.5 -37.5q-58 -54 -87.5 -108t-29.5 -95z" />
<glyph unicode="&#xa7;" horiz-adv-x="821" d="M-37 25q1 12 15 11t14 -13q-16 -116 35 -183q35 -56 89 -75t113 -5q53 14 91.5 53.5t58.5 92.5q43 134 -90 344q-83 149 -107 211q-39 99 -39 192q0 116 64 206.5t166 113.5q-41 100 -41 201q0 129 68.5 220.5t199.5 104.5q82 8 148.5 -24.5t97.5 -108.5q33 -85 -2 -207 q-3 -12 -18 -8q-13 4 -9 14q36 116 0 187q-25 62 -74.5 90.5t-111.5 25.5q-108 -9 -172 -114q-32 -57 -34.5 -131t17.5 -143t56 -136q18 -35 57 -98t69.5 -122t47.5 -122q32 -114 -22.5 -211t-168.5 -123q-33 -8 -80 -8q39 -71 58.5 -131t15.5 -129q-6 -93 -58.5 -163.5 t-150.5 -98.5q-51 -14 -99 -13.5t-93 25t-74 70.5q-51 78 -37 205zM236 702.5q-2 -74.5 18 -142.5t55 -136q9 -23 20.5 -44t32.5 -54.5t25 -40.5q40 -3 80 10q44 24 69.5 60.5t30.5 79t1 86.5t-20.5 91.5t-33.5 84t-37 73.5q-52 86 -88 166q-73 -26 -119 -102 q-32 -57 -34 -131.5z" />
<glyph unicode="&#x2000;" horiz-adv-x="750" />
<glyph unicode="&#x2001;" horiz-adv-x="1500" />
<glyph unicode="&#x2002;" horiz-adv-x="750" />
<glyph unicode="&#x2003;" horiz-adv-x="1500" />
<glyph unicode="&#x2004;" horiz-adv-x="500" />
<glyph unicode="&#x2005;" horiz-adv-x="375" />
<glyph unicode="&#x2006;" horiz-adv-x="250" />
<glyph unicode="&#x2007;" horiz-adv-x="250" />
<glyph unicode="&#x2008;" horiz-adv-x="187" />
<glyph unicode="&#x2009;" horiz-adv-x="300" />
<glyph unicode="&#x200a;" horiz-adv-x="83" />
<glyph unicode="&#x202f;" horiz-adv-x="300" />
<glyph unicode="&#x205f;" horiz-adv-x="375" />
<glyph unicode="&#x25fc;" horiz-adv-x="593" d="M0 0v594h594v-594h-594z" />
</font>
</defs>
</svg>
